<?xml version="1.0" encoding="UTF-8" standalone="no"?><svg xmlns="http://www.w3.org/2000/svg" xmlns:xlink="http://www.w3.org/1999/xlink" clip-rule="evenodd" stroke-miterlimit="10" viewBox="0 0 1920 1080"><desc>SVG generated by Keynote</desc><defs></defs><g transform="matrix(1.00, 0.00, -0.00, -1.00, 0.0, 1080.0)"><path d="M 0.0 1080.0 L 1920.0 1080.0 L 1920.0 0.0 L 0.0 0.0 Z M 0.0 1080.0 " fill="#000000"></path><text xml:space="preserve" font-family="Avenir-Light,Avenir" font-size="86.0" fill="#FEFFFF" transform="matrix(1.00, 0.00, -0.00, -1.00, 101.0, 515.5)">E</text><text xml:space="preserve" font-family="Avenir-Light,Avenir" font-size="86.0" fill="#FEFFFF" transform="matrix(1.00, 0.00, -0.00, -1.00, 165.8, 515.5)">N</text><text xml:space="preserve" font-family="Avenir-Light,Avenir" font-size="86.0" fill="#FEFFFF" transform="matrix(1.00, 0.00, -0.00, -1.00, 246.4, 515.5)">T</text><text xml:space="preserve" font-family="Avenir-Light,Avenir" font-size="86.0" fill="#FEFFFF" transform="matrix(1.00, 0.00, -0.00, -1.00, 309.5, 515.5)">I</text><text xml:space="preserve" font-family="Avenir-Light,Avenir" font-size="86.0" fill="#FEFFFF" transform="matrix(1.00, 0.00, -0.00, -1.00, 345.7, 515.5)">T</text><text xml:space="preserve" font-family="Avenir-Light,Avenir" font-size="86.0" fill="#FEFFFF" transform="matrix(1.00, 0.00, -0.00, -1.00, 408.8, 515.5)">Y</text><text xml:space="preserve" font-family="Avenir-Light,Avenir" font-size="86.0" fill="#FEFFFF" transform="matrix(1.00, 0.00, -0.00, -1.00, 462.4, 515.5)">-</text><text xml:space="preserve" font-family="Avenir-Light,Avenir" font-size="86.0" fill="#FEFFFF" transform="matrix(1.00, 0.00, -0.00, -1.00, 504.8, 515.5)">R</text><text xml:space="preserve" font-family="Avenir-Light,Avenir" font-size="86.0" fill="#FEFFFF" transform="matrix(1.00, 0.00, -0.00, -1.00, 569.5, 515.5)">E</text><text xml:space="preserve" font-family="Avenir-Light,Avenir" font-size="86.0" fill="#FEFFFF" transform="matrix(1.00, 0.00, -0.00, -1.00, 634.3, 515.5)">L</text><text xml:space="preserve" font-family="Avenir-Light,Avenir" font-size="86.0" fill="#FEFFFF" transform="matrix(1.00, 0.00, -0.00, -1.00, 691.0, 515.5)">A</text><text xml:space="preserve" font-family="Avenir-Light,Avenir" font-size="86.0" fill="#FEFFFF" transform="matrix(1.00, 0.00, -0.00, -1.00, 757.9, 515.5)">T</text><text xml:space="preserve" font-family="Avenir-Light,Avenir" font-size="86.0" fill="#FEFFFF" transform="matrix(1.00, 0.00, -0.00, -1.00, 821.0, 515.5)">I</text><text xml:space="preserve" font-family="Avenir-Light,Avenir" font-size="86.0" fill="#FEFFFF" transform="matrix(1.00, 0.00, -0.00, -1.00, 857.1, 515.5)">O</text><text xml:space="preserve" font-family="Avenir-Light,Avenir" font-size="86.0" fill="#FEFFFF" transform="matrix(1.00, 0.00, -0.00, -1.00, 942.6, 515.5)">N</text><text xml:space="preserve" font-family="Avenir-Light,Avenir" font-size="86.0" fill="#FEFFFF" transform="matrix(1.00, 0.00, -0.00, -1.00, 1023.3, 515.5)">S</text><text xml:space="preserve" font-family="Avenir-Light,Avenir" font-size="86.0" fill="#FEFFFF" transform="matrix(1.00, 0.00, -0.00, -1.00, 1084.8, 515.5)">H</text><text xml:space="preserve" font-family="Avenir-Light,Avenir" font-size="86.0" fill="#FEFFFF" transform="matrix(1.00, 0.00, -0.00, -1.00, 1160.7, 515.5)">I</text><text xml:space="preserve" font-family="Avenir-Light,Avenir" font-size="86.0" fill="#FEFFFF" transform="matrix(1.00, 0.00, -0.00, -1.00, 1196.8, 515.5)">P</text><text xml:space="preserve" font-family="Avenir-Light,Avenir" font-size="86.0" fill="#FEFFFF" transform="matrix(1.00, 0.00, -0.00, -1.00, 1259.9, 515.5)"> </text><text xml:space="preserve" font-family="Avenir-Light,Avenir" font-size="86.0" fill="#FEFFFF" transform="matrix(1.00, 0.00, -0.00, -1.00, 1296.1, 515.5)">M</text><text xml:space="preserve" font-family="Avenir-Light,Avenir" font-size="86.0" fill="#FEFFFF" transform="matrix(1.00, 0.00, -0.00, -1.00, 1386.3, 515.5)">O</text><text xml:space="preserve" font-family="Avenir-Light,Avenir" font-size="86.0" fill="#FEFFFF" transform="matrix(1.00, 0.00, -0.00, -1.00, 1471.8, 515.5)">D</text><text xml:space="preserve" font-family="Avenir-Light,Avenir" font-size="86.0" fill="#FEFFFF" transform="matrix(1.00, 0.00, -0.00, -1.00, 1549.2, 515.5)">E</text><text xml:space="preserve" font-family="Avenir-Light,Avenir" font-size="86.0" fill="#FEFFFF" transform="matrix(1.00, 0.00, -0.00, -1.00, 1614.0, 515.5)">L</text><text xml:space="preserve" font-family="Avenir-Light,Avenir" font-size="86.0" fill="#FEFFFF" transform="matrix(1.00, 0.00, -0.00, -1.00, 1670.8, 515.5)">S</text><text xml:space="preserve" font-family="Avenir-Book,Avenir" font-size="32.0" fill="#55D6FF" transform="matrix(1.00, 0.00, -0.00, -1.00, 101.5, 644.7)">S</text><text xml:space="preserve" font-family="Avenir-Book,Avenir" font-size="32.0" fill="#55D6FF" transform="matrix(1.00, 0.00, -0.00, -1.00, 124.4, 644.7)">T</text><text xml:space="preserve" font-family="Avenir-Book,Avenir" font-size="32.0" fill="#55D6FF" transform="matrix(1.00, 0.00, -0.00, -1.00, 145.7, 644.7)">A</text><text xml:space="preserve" font-family="Avenir-Book,Avenir" font-size="32.0" fill="#55D6FF" transform="matrix(1.00, 0.00, -0.00, -1.00, 172.8, 644.7)">R</text><text xml:space="preserve" font-family="Avenir-Book,Avenir" font-size="32.0" fill="#55D6FF" transform="matrix(1.00, 0.00, -0.00, -1.00, 196.9, 644.7)">B</text><text xml:space="preserve" font-family="Avenir-Book,Avenir" font-size="32.0" fill="#55D6FF" transform="matrix(1.00, 0.00, -0.00, -1.00, 222.2, 644.7)">O</text><text xml:space="preserve" font-family="Avenir-Book,Avenir" font-size="32.0" fill="#55D6FF" transform="matrix(1.00, 0.00, -0.00, -1.00, 254.0, 644.7)">U</text><text xml:space="preserve" font-family="Avenir-Book,Avenir" font-size="32.0" fill="#55D6FF" transform="matrix(1.00, 0.00, -0.00, -1.00, 281.1, 644.7)">N</text><text xml:space="preserve" font-family="Avenir-Book,Avenir" font-size="32.0" fill="#55D6FF" transform="matrix(1.00, 0.00, -0.00, -1.00, 311.1, 644.7)">D</text><text xml:space="preserve" font-family="Avenir-Book,Avenir" font-size="32.0" fill="#55D6FF" transform="matrix(1.00, 0.00, -0.00, -1.00, 339.9, 644.7)"> </text><text xml:space="preserve" font-family="Avenir-Book,Avenir" font-size="32.0" fill="#55D6FF" transform="matrix(1.00, 0.00, -0.00, -1.00, 353.9, 644.7)">T</text><text xml:space="preserve" font-family="Avenir-Book,Avenir" font-size="32.0" fill="#55D6FF" transform="matrix(1.00, 0.00, -0.00, -1.00, 377.4, 644.7)">O</text><text xml:space="preserve" font-family="Avenir-Book,Avenir" font-size="32.0" fill="#55D6FF" transform="matrix(1.00, 0.00, -0.00, -1.00, 409.2, 644.7)">D</text><text xml:space="preserve" font-family="Avenir-Book,Avenir" font-size="32.0" fill="#55D6FF" transform="matrix(1.00, 0.00, -0.00, -1.00, 438.0, 644.7)">A</text><text xml:space="preserve" font-family="Avenir-Book,Avenir" font-size="32.0" fill="#55D6FF" transform="matrix(1.00, 0.00, -0.00, -1.00, 465.1, 644.7)">Y</text></g></svg>